<svg xmlns="http://www.w3.org/2000/svg" xmlns:xlink="http://www.w3.org/1999/xlink" width="200" zoomAndPan="magnify" viewBox="0 0 150 52.499999" height="70" preserveAspectRatio="xMidYMid meet" version="1.0"><defs><g/><clipPath id="b9b9132ba6"><path d="M 0.707031 0 L 149.292969 0 L 149.292969 52.003906 L 0.707031 52.003906 Z M 0.707031 0 " clip-rule="nonzero"/></clipPath></defs><g clip-path="url(#b9b9132ba6)"><path fill="#ffffff" d="M 0.707031 0 L 149.292969 0 L 149.292969 59.433594 L 0.707031 59.433594 Z M 0.707031 0 " fill-opacity="1" fill-rule="nonzero"/><path fill="#ffffff" d="M 0.707031 0 L 149.292969 0 L 149.292969 52.003906 L 0.707031 52.003906 Z M 0.707031 0 " fill-opacity="1" fill-rule="nonzero"/><path fill="#ffffff" d="M 0.707031 0 L 149.292969 0 L 149.292969 52.003906 L 0.707031 52.003906 Z M 0.707031 0 " fill-opacity="1" fill-rule="nonzero"/></g><path stroke-linecap="butt" transform="matrix(0.742924, 0, 0, 0.742924, 78.533538, 19.216982)" fill="none" stroke-linejoin="miter" d="M 14.230155 5.318153 C 14.230155 6.148908 14.030353 6.874503 13.63075 7.484423 C 13.231147 8.094344 12.673806 8.567558 11.953468 8.898808 C 11.227873 9.224801 10.402377 9.387797 9.461206 9.387797 L 7.089877 9.387797 C 6.95317 9.387797 6.884817 9.450892 6.884817 9.58234 L 6.884817 13.494245 C 6.884817 13.683531 6.837496 13.814979 6.742853 13.888591 C 6.64821 13.962202 6.506246 13.999007 6.311702 13.999007 L 3.398805 13.999007 C 3.225293 13.999007 3.104361 13.96746 3.041265 13.899106 C 2.97817 13.825495 2.946622 13.720337 2.946622 13.567856 L 2.946622 1.537697 C 2.946622 1.2748 3.057039 1.143352 3.277872 1.143352 L 9.014282 1.143352 C 9.987 1.143352 10.865075 1.30109 11.653766 1.621824 C 12.447714 1.9373 13.073409 2.405256 13.536107 3.030951 C 13.998806 3.651387 14.230155 4.413788 14.230155 5.318153 Z M 10.207833 5.265574 C 10.207833 4.860713 10.071127 4.534721 9.792456 4.287598 C 9.519044 4.035217 9.177278 3.914284 8.772417 3.914284 L 7.279162 3.914284 C 7.13194 3.914284 7.026781 3.940574 6.968944 4.003669 C 6.911107 4.056249 6.884817 4.150891 6.884817 4.277082 L 6.884817 6.238292 C 6.884817 6.374999 6.905849 6.4749 6.95317 6.532737 C 7.000492 6.590574 7.074103 6.616864 7.174004 6.616864 L 8.877575 6.616864 C 9.277178 6.616864 9.603171 6.485415 9.845036 6.227777 C 10.086901 5.970138 10.207833 5.649404 10.207833 5.265574 Z M 19.235711 1.143352 C 19.446028 1.143352 19.551187 1.264284 19.551187 1.506149 L 19.551187 13.494245 C 19.551187 13.683531 19.503866 13.814979 19.409223 13.888591 C 19.31458 13.962202 19.172616 13.999007 18.978072 13.999007 L 16.086207 13.999007 C 15.907437 13.999007 15.786504 13.96746 15.718151 13.899106 C 15.649798 13.825495 15.612992 13.720337 15.612992 13.567856 L 15.612992 1.537697 C 15.612992 1.411506 15.64454 1.316864 15.697119 1.24851 C 15.760215 1.174899 15.839084 1.143352 15.944242 1.143352 Z M 21.796326 13.999007 C 21.65962 13.999007 21.549203 13.956944 21.470334 13.872817 C 21.391465 13.783432 21.349402 13.667757 21.349402 13.515277 L 21.349402 1.537697 C 21.349402 1.400991 21.380949 1.30109 21.433529 1.237994 C 21.496624 1.174899 21.586009 1.143352 21.712199 1.143352 L 26.565275 1.143352 C 26.717755 1.143352 26.822914 1.164383 26.886009 1.201189 C 26.949104 1.243252 27.006942 1.327379 27.054263 1.45357 L 28.857735 6.963888 C 28.889283 7.058531 28.931346 7.105852 28.97341 7.105852 C 29.010216 7.105852 29.047021 7.058531 29.078569 6.963888 L 30.692755 1.648114 C 30.78214 1.311606 30.939878 1.143352 31.155454 1.143352 L 36.166268 1.143352 C 36.376585 1.143352 36.481744 1.264284 36.481744 1.506149 L 36.481744 13.494245 C 36.481744 13.683531 36.434422 13.814979 36.350295 13.888591 C 36.26091 13.962202 36.118946 13.999007 35.924403 13.999007 L 32.995732 13.999007 C 32.82222 13.999007 32.701287 13.96746 32.638192 13.899106 C 32.575097 13.825495 32.543549 13.720337 32.543549 13.567856 L 32.543549 5.78611 C 32.543549 5.691467 32.522517 5.649404 32.480454 5.649404 C 32.417359 5.649404 32.370037 5.701983 32.33849 5.807142 L 29.84097 13.688789 C 29.762101 13.893849 29.620136 13.999007 29.425593 13.999007 L 27.606346 13.999007 C 27.401287 13.999007 27.259323 13.893849 27.190969 13.688789 L 24.698707 5.93859 C 24.661902 5.822915 24.619838 5.765078 24.572517 5.765078 C 24.51468 5.765078 24.483132 5.828173 24.483132 5.954364 L 24.483132 13.620436 C 24.483132 13.767658 24.4621 13.872817 24.420037 13.925396 C 24.372715 13.972718 24.267556 13.999007 24.10456 13.999007 Z M 38.279958 1.537697 C 38.279958 1.2748 38.390375 1.143352 38.611208 1.143352 L 47.970336 1.143352 C 48.175395 1.143352 48.275296 1.264284 48.275296 1.506149 L 48.259522 3.514681 C 48.259522 3.830157 48.1123 3.987895 47.812598 3.987895 L 42.612498 3.987895 C 42.349601 3.987895 42.212895 4.093054 42.212895 4.30863 L 42.212895 5.78611 C 42.212895 5.896527 42.244443 5.991169 42.297022 6.054265 C 42.360117 6.11736 42.433728 6.154165 42.528371 6.154165 L 45.646328 6.154165 C 45.888193 6.154165 46.009125 6.264582 46.009125 6.495931 L 46.009125 8.64117 C 46.009125 8.840971 45.903967 8.940872 45.698907 8.940872 L 42.491566 8.940872 C 42.412697 8.940872 42.344343 8.961904 42.291764 9.009225 C 42.239185 9.056547 42.212895 9.114384 42.212895 9.182737 L 42.212895 10.917856 C 42.212895 11.007241 42.228669 11.070336 42.254958 11.107142 C 42.286506 11.13869 42.339085 11.154463 42.423212 11.154463 L 48.054463 11.154463 C 48.306844 11.154463 48.433034 11.26488 48.433034 11.485713 L 48.433034 13.620436 C 48.433034 13.73611 48.401487 13.825495 48.327876 13.899106 C 48.259522 13.96746 48.159622 13.999007 48.017657 13.999007 L 38.747915 13.999007 C 38.574403 13.999007 38.45347 13.96746 38.379859 13.899106 C 38.311506 13.825495 38.279958 13.720337 38.279958 13.567856 Z M 61.036309 1.143352 C 61.204563 1.143352 61.293948 1.237994 61.293948 1.432538 L 61.293948 13.688789 C 61.293948 13.778174 61.251884 13.857043 61.178273 13.91488 C 61.104662 13.972718 61.010019 13.999007 60.894345 13.999007 L 58.523015 13.999007 C 58.417856 13.999007 58.333729 13.983233 58.265376 13.951686 C 58.207539 13.91488 58.133928 13.841269 58.049801 13.741368 L 53.28611 7.279364 C 53.238789 7.216269 53.196725 7.195237 53.165177 7.205753 C 53.128372 7.216269 53.112598 7.253074 53.112598 7.310912 L 53.112598 13.620436 C 53.123114 13.757142 53.096824 13.857043 53.033729 13.91488 C 52.970634 13.972718 52.860217 13.999007 52.697221 13.999007 L 50.336407 13.999007 C 50.052479 13.999007 49.905257 13.883333 49.905257 13.651983 L 49.905257 1.537697 C 49.905257 1.2748 50.031447 1.143352 50.289086 1.143352 L 53.112598 1.143352 C 53.265078 1.143352 53.375495 1.164383 53.449106 1.201189 C 53.522717 1.243252 53.606844 1.327379 53.701487 1.45357 L 57.860515 7.242558 C 57.934126 7.342459 57.997221 7.395039 58.049801 7.395039 C 58.112896 7.395039 58.139186 7.321427 58.139186 7.168947 L 58.139186 1.506149 C 58.139186 1.264284 58.265376 1.143352 58.523015 1.143352 Z M 62.676785 1.537697 C 62.676785 1.422022 62.713591 1.327379 62.787202 1.253768 C 62.866071 1.180157 62.97123 1.143352 63.107936 1.143352 L 73.47133 1.143352 C 73.613294 1.143352 73.718453 1.180157 73.792064 1.253768 C 73.870933 1.327379 73.907738 1.422022 73.907738 1.537697 L 73.907738 3.598808 C 73.907738 3.819641 73.781548 3.930058 73.529167 3.930058 L 70.458532 3.930058 C 70.321825 3.930058 70.253472 3.987895 70.253472 4.10357 L 70.253472 13.620436 C 70.253472 13.746626 70.221925 13.841269 70.164087 13.904364 C 70.10625 13.96746 70.027381 13.999007 69.922222 13.999007 L 66.630754 13.999007 C 66.420436 13.999007 66.315278 13.883333 66.315278 13.651983 L 66.315278 4.177181 C 66.315278 4.014185 66.252182 3.930058 66.125992 3.930058 L 63.076388 3.930058 C 62.813492 3.930058 62.676785 3.819641 62.676785 3.598808 Z M 75.138096 13.999007 C 75.043453 13.999007 74.964584 13.96746 74.906746 13.904364 C 74.848909 13.841269 74.822619 13.751884 74.822619 13.63621 C 74.822619 13.552083 74.843651 13.462698 74.880457 13.357539 L 79.071032 1.537697 C 79.12887 1.390475 79.191965 1.285316 79.260318 1.232737 C 79.333929 1.169641 79.444346 1.143352 79.591568 1.143352 L 83.003969 1.143352 C 83.145934 1.143352 83.266866 1.185415 83.377283 1.2748 C 83.487699 1.358927 83.571826 1.469344 83.629664 1.60605 L 87.788692 13.410118 C 87.809724 13.504761 87.820239 13.573114 87.820239 13.620436 C 87.820239 13.725595 87.799208 13.814979 87.751886 13.888591 C 87.709823 13.962202 87.636212 13.999007 87.546827 13.999007 L 84.150199 13.999007 C 83.950398 13.999007 83.824207 13.899106 83.76637 13.704563 L 83.088096 11.711805 C 83.056549 11.632936 83.025001 11.580356 82.993453 11.548809 C 82.967164 11.517261 82.909326 11.501487 82.830457 11.501487 L 79.155159 11.501487 C 79.018453 11.501487 78.929068 11.564582 78.897521 11.696031 L 78.187699 13.741368 C 78.114088 13.91488 77.977382 13.999007 77.772322 13.999007 Z M 81.962898 8.557043 C 82.089088 8.557043 82.157441 8.499205 82.157441 8.383531 C 82.157441 8.362499 82.141668 8.304662 82.120636 8.210019 L 81.079564 5.2498 C 81.058533 5.191963 81.021727 5.160415 80.974406 5.160415 C 80.927084 5.160415 80.895537 5.191963 80.874505 5.2498 L 79.817659 8.194245 C 79.79137 8.241566 79.780854 8.299404 79.780854 8.367757 C 79.780854 8.493947 79.849207 8.557043 79.991171 8.557043 Z M 81.962898 8.557043 " stroke="#357b70" stroke-width="0.650002" stroke-opacity="1" stroke-miterlimit="4"/><g fill="#357b70" fill-opacity="1"><g transform="translate(8.995498, 29.617925)"><g><path d="M 4.953125 -9.6875 C 5.671875 -9.6875 6.316406 -9.554688 6.890625 -9.296875 C 7.460938 -9.046875 7.929688 -8.695312 8.296875 -8.25 C 8.671875 -7.800781 8.914062 -7.289062 9.03125 -6.71875 C 9.050781 -6.613281 9.0625 -6.53125 9.0625 -6.46875 C 9.0625 -6.394531 9.046875 -6.34375 9.015625 -6.3125 C 8.984375 -6.289062 8.929688 -6.273438 8.859375 -6.265625 L 6.609375 -6.125 C 6.515625 -6.125 6.457031 -6.140625 6.4375 -6.171875 C 6.414062 -6.203125 6.390625 -6.269531 6.359375 -6.375 C 6.285156 -6.78125 6.144531 -7.101562 5.9375 -7.34375 C 5.726562 -7.582031 5.425781 -7.703125 5.03125 -7.703125 C 4.53125 -7.703125 4.140625 -7.476562 3.859375 -7.03125 C 3.585938 -6.582031 3.453125 -5.859375 3.453125 -4.859375 C 3.453125 -3.816406 3.578125 -3.078125 3.828125 -2.640625 C 4.078125 -2.203125 4.472656 -1.984375 5.015625 -1.984375 C 5.472656 -1.984375 5.863281 -2.097656 6.1875 -2.328125 C 6.507812 -2.554688 6.773438 -2.941406 6.984375 -3.484375 C 7.015625 -3.566406 7.085938 -3.609375 7.203125 -3.609375 C 7.265625 -3.609375 7.316406 -3.601562 7.359375 -3.59375 L 8.96875 -3.265625 C 9.09375 -3.222656 9.15625 -3.125 9.15625 -2.96875 C 9.15625 -2.726562 9.003906 -2.359375 8.703125 -1.859375 C 8.410156 -1.359375 7.945312 -0.898438 7.3125 -0.484375 C 6.6875 -0.078125 5.894531 0.125 4.9375 0.125 C 4.019531 0.125 3.21875 -0.0859375 2.53125 -0.515625 C 1.84375 -0.953125 1.3125 -1.550781 0.9375 -2.3125 C 0.570312 -3.070312 0.390625 -3.9375 0.390625 -4.90625 C 0.390625 -5.863281 0.570312 -6.703125 0.9375 -7.421875 C 1.3125 -8.148438 1.84375 -8.707031 2.53125 -9.09375 C 3.226562 -9.488281 4.035156 -9.6875 4.953125 -9.6875 Z M 4.953125 -9.6875 "/></g></g></g><g fill="#357b70" fill-opacity="1"><g transform="translate(18.483203, 29.617925)"><g><path d="M 0.546875 0 C 0.484375 0 0.429688 -0.0195312 0.390625 -0.0625 C 0.347656 -0.113281 0.328125 -0.179688 0.328125 -0.265625 C 0.328125 -0.328125 0.335938 -0.394531 0.359375 -0.46875 L 3.46875 -9.25 C 3.519531 -9.363281 3.566406 -9.441406 3.609375 -9.484375 C 3.660156 -9.523438 3.742188 -9.546875 3.859375 -9.546875 L 6.40625 -9.546875 C 6.5 -9.546875 6.585938 -9.515625 6.671875 -9.453125 C 6.753906 -9.390625 6.816406 -9.304688 6.859375 -9.203125 L 9.953125 -0.4375 C 9.972656 -0.363281 9.984375 -0.3125 9.984375 -0.28125 C 9.984375 -0.207031 9.960938 -0.140625 9.921875 -0.078125 C 9.890625 -0.0234375 9.835938 0 9.765625 0 L 7.25 0 C 7.101562 0 7.007812 -0.0703125 6.96875 -0.21875 L 6.46875 -1.703125 C 6.4375 -1.765625 6.410156 -1.804688 6.390625 -1.828125 C 6.367188 -1.847656 6.328125 -1.859375 6.265625 -1.859375 L 3.546875 -1.859375 C 3.441406 -1.859375 3.375 -1.8125 3.34375 -1.71875 L 2.8125 -0.1875 C 2.769531 -0.0625 2.671875 0 2.515625 0 Z M 5.625 -4.046875 C 5.71875 -4.046875 5.765625 -4.085938 5.765625 -4.171875 C 5.765625 -4.191406 5.757812 -4.234375 5.75 -4.296875 L 4.96875 -6.5 C 4.945312 -6.539062 4.921875 -6.5625 4.890625 -6.5625 C 4.859375 -6.5625 4.832031 -6.539062 4.8125 -6.5 L 4.03125 -4.3125 C 4.007812 -4.28125 4 -4.238281 4 -4.1875 C 4 -4.09375 4.050781 -4.046875 4.15625 -4.046875 Z M 5.625 -4.046875 "/></g></g></g><g fill="#357b70" fill-opacity="1"><g transform="translate(28.769061, 29.617925)"><g><path d="M 9.03125 -0.40625 C 9.039062 -0.375 9.046875 -0.328125 9.046875 -0.265625 C 9.046875 -0.191406 9.019531 -0.128906 8.96875 -0.078125 C 8.925781 -0.0234375 8.867188 0 8.796875 0 L 6.296875 0 C 6.117188 0 6.003906 -0.0859375 5.953125 -0.265625 L 4.734375 -3.59375 C 4.710938 -3.65625 4.671875 -3.703125 4.609375 -3.734375 C 4.546875 -3.773438 4.457031 -3.796875 4.34375 -3.796875 L 3.75 -3.796875 C 3.695312 -3.796875 3.65625 -3.773438 3.625 -3.734375 C 3.601562 -3.703125 3.59375 -3.675781 3.59375 -3.65625 L 3.59375 -0.375 C 3.59375 -0.238281 3.554688 -0.140625 3.484375 -0.078125 C 3.421875 -0.0234375 3.316406 0 3.171875 0 L 1 0 C 0.875 0 0.785156 -0.0234375 0.734375 -0.078125 C 0.691406 -0.128906 0.671875 -0.210938 0.671875 -0.328125 L 0.671875 -9.25 C 0.671875 -9.445312 0.753906 -9.546875 0.921875 -9.546875 L 5.21875 -9.546875 C 6.457031 -9.546875 7.421875 -9.304688 8.109375 -8.828125 C 8.796875 -8.359375 9.140625 -7.691406 9.140625 -6.828125 C 9.140625 -6.234375 8.984375 -5.703125 8.671875 -5.234375 C 8.359375 -4.773438 7.953125 -4.453125 7.453125 -4.265625 C 7.398438 -4.234375 7.375 -4.191406 7.375 -4.140625 C 7.375 -4.109375 7.382812 -4.066406 7.40625 -4.015625 Z M 5.09375 -5.71875 C 5.425781 -5.71875 5.675781 -5.800781 5.84375 -5.96875 C 6.019531 -6.132812 6.109375 -6.359375 6.109375 -6.640625 C 6.109375 -6.960938 6.003906 -7.207031 5.796875 -7.375 C 5.585938 -7.550781 5.328125 -7.640625 5.015625 -7.640625 L 3.890625 -7.640625 C 3.773438 -7.640625 3.695312 -7.617188 3.65625 -7.578125 C 3.613281 -7.546875 3.59375 -7.484375 3.59375 -7.390625 L 3.59375 -5.984375 C 3.59375 -5.890625 3.609375 -5.820312 3.640625 -5.78125 C 3.671875 -5.738281 3.726562 -5.71875 3.8125 -5.71875 Z M 5.09375 -5.71875 "/></g></g></g><g fill="#357b70" fill-opacity="1"><g transform="translate(38.28251, 29.617925)"><g><path d="M 5.03125 0.125 C 4.09375 0.125 3.273438 -0.0703125 2.578125 -0.46875 C 1.878906 -0.863281 1.34375 -1.425781 0.96875 -2.15625 C 0.59375 -2.894531 0.40625 -3.757812 0.40625 -4.75 C 0.40625 -5.738281 0.59375 -6.601562 0.96875 -7.34375 C 1.351562 -8.082031 1.894531 -8.65625 2.59375 -9.0625 C 3.289062 -9.476562 4.101562 -9.6875 5.03125 -9.6875 C 5.945312 -9.6875 6.753906 -9.476562 7.453125 -9.0625 C 8.148438 -8.65625 8.6875 -8.082031 9.0625 -7.34375 C 9.445312 -6.601562 9.640625 -5.738281 9.640625 -4.75 C 9.640625 -3.769531 9.453125 -2.910156 9.078125 -2.171875 C 8.703125 -1.429688 8.164062 -0.863281 7.46875 -0.46875 C 6.769531 -0.0703125 5.957031 0.125 5.03125 0.125 Z M 5.03125 -1.875 C 5.40625 -1.875 5.703125 -1.96875 5.921875 -2.15625 C 6.148438 -2.34375 6.316406 -2.640625 6.421875 -3.046875 C 6.523438 -3.460938 6.578125 -4.019531 6.578125 -4.71875 C 6.578125 -5.78125 6.457031 -6.539062 6.21875 -7 C 5.976562 -7.46875 5.582031 -7.703125 5.03125 -7.703125 C 4.476562 -7.703125 4.078125 -7.46875 3.828125 -7 C 3.585938 -6.539062 3.46875 -5.78125 3.46875 -4.71875 C 3.46875 -4.019531 3.515625 -3.460938 3.609375 -3.046875 C 3.710938 -2.640625 3.878906 -2.34375 4.109375 -2.15625 C 4.335938 -1.96875 4.644531 -1.875 5.03125 -1.875 Z M 5.03125 -1.875 "/></g></g></g><g fill="#357b70" fill-opacity="1"><g transform="translate(48.323768, 29.617925)"><g><path d="M 0.671875 -9.25 C 0.671875 -9.351562 0.691406 -9.425781 0.734375 -9.46875 C 0.773438 -9.519531 0.835938 -9.546875 0.921875 -9.546875 L 3.359375 -9.546875 C 3.515625 -9.546875 3.59375 -9.457031 3.59375 -9.28125 L 3.59375 -2.296875 C 3.59375 -2.222656 3.601562 -2.171875 3.625 -2.140625 C 3.644531 -2.117188 3.6875 -2.109375 3.75 -2.109375 L 7.625 -2.109375 C 7.820312 -2.109375 7.921875 -2.023438 7.921875 -1.859375 L 7.921875 -0.28125 C 7.921875 -0.195312 7.890625 -0.128906 7.828125 -0.078125 C 7.773438 -0.0234375 7.695312 0 7.59375 0 L 1.015625 0 C 0.890625 0 0.800781 -0.0234375 0.75 -0.078125 C 0.695312 -0.128906 0.671875 -0.210938 0.671875 -0.328125 Z M 0.671875 -9.25 "/></g></g></g><g fill="#357b70" fill-opacity="1"><g transform="translate(56.601375, 29.617925)"><g><path d="M 3.359375 -9.546875 C 3.515625 -9.546875 3.59375 -9.457031 3.59375 -9.28125 L 3.59375 -0.375 C 3.59375 -0.238281 3.554688 -0.140625 3.484375 -0.078125 C 3.421875 -0.0234375 3.316406 0 3.171875 0 L 1.015625 0 C 0.890625 0 0.800781 -0.0234375 0.75 -0.078125 C 0.695312 -0.128906 0.671875 -0.210938 0.671875 -0.328125 L 0.671875 -9.25 C 0.671875 -9.351562 0.691406 -9.425781 0.734375 -9.46875 C 0.773438 -9.519531 0.835938 -9.546875 0.921875 -9.546875 Z M 3.359375 -9.546875 "/></g></g></g><g fill="#357b70" fill-opacity="1"><g transform="translate(60.862478, 29.617925)"><g><path d="M 8.9375 -9.546875 C 9.0625 -9.546875 9.125 -9.472656 9.125 -9.328125 L 9.125 -0.234375 C 9.125 -0.160156 9.097656 -0.101562 9.046875 -0.0625 C 8.992188 -0.0195312 8.921875 0 8.828125 0 L 7.0625 0 C 6.988281 0 6.925781 -0.0078125 6.875 -0.03125 C 6.832031 -0.0625 6.78125 -0.113281 6.71875 -0.1875 L 3.1875 -5 C 3.144531 -5.039062 3.109375 -5.054688 3.078125 -5.046875 C 3.054688 -5.035156 3.046875 -5.007812 3.046875 -4.96875 L 3.046875 -0.28125 C 3.054688 -0.175781 3.035156 -0.101562 2.984375 -0.0625 C 2.941406 -0.0195312 2.863281 0 2.75 0 L 0.984375 0 C 0.773438 0 0.671875 -0.0820312 0.671875 -0.25 L 0.671875 -9.25 C 0.671875 -9.445312 0.765625 -9.546875 0.953125 -9.546875 L 3.046875 -9.546875 C 3.160156 -9.546875 3.242188 -9.53125 3.296875 -9.5 C 3.359375 -9.476562 3.421875 -9.421875 3.484375 -9.328125 L 6.578125 -5.015625 C 6.628906 -4.941406 6.675781 -4.90625 6.71875 -4.90625 C 6.757812 -4.90625 6.78125 -4.960938 6.78125 -5.078125 L 6.78125 -9.28125 C 6.78125 -9.457031 6.875 -9.546875 7.0625 -9.546875 Z M 8.9375 -9.546875 "/></g></g></g><g fill="#357b70" fill-opacity="1"><g transform="translate(70.659148, 29.617925)"><g><path d="M 0.671875 -9.25 C 0.671875 -9.445312 0.753906 -9.546875 0.921875 -9.546875 L 7.859375 -9.546875 C 8.015625 -9.546875 8.09375 -9.457031 8.09375 -9.28125 L 8.078125 -7.796875 C 8.078125 -7.554688 7.96875 -7.4375 7.75 -7.4375 L 3.890625 -7.4375 C 3.691406 -7.4375 3.59375 -7.359375 3.59375 -7.203125 L 3.59375 -6.109375 C 3.59375 -6.015625 3.613281 -5.941406 3.65625 -5.890625 C 3.695312 -5.847656 3.753906 -5.828125 3.828125 -5.828125 L 6.140625 -5.828125 C 6.316406 -5.828125 6.40625 -5.742188 6.40625 -5.578125 L 6.40625 -3.984375 C 6.40625 -3.835938 6.332031 -3.765625 6.1875 -3.765625 L 3.796875 -3.765625 C 3.734375 -3.765625 3.679688 -3.742188 3.640625 -3.703125 C 3.609375 -3.671875 3.59375 -3.628906 3.59375 -3.578125 L 3.59375 -2.296875 C 3.59375 -2.222656 3.601562 -2.171875 3.625 -2.140625 C 3.644531 -2.117188 3.6875 -2.109375 3.75 -2.109375 L 7.9375 -2.109375 C 8.125 -2.109375 8.21875 -2.023438 8.21875 -1.859375 L 8.21875 -0.28125 C 8.21875 -0.195312 8.191406 -0.128906 8.140625 -0.078125 C 8.085938 -0.0234375 8.007812 0 7.90625 0 L 1.015625 0 C 0.890625 0 0.800781 -0.0234375 0.75 -0.078125 C 0.695312 -0.128906 0.671875 -0.210938 0.671875 -0.328125 Z M 0.671875 -9.25 "/></g></g></g></svg>